<svg xmlns="http://www.w3.org/2000/svg" viewBox="0 0 776 512.08"><title>Asset 2</title><g id="Layer_2" data-name="Layer 2"><g id="Layer_1-2" data-name="Layer 1"><g id="backdrop"><path d="M752.75,222.93V199.05a17.18,17.18,0,0,0-17.18-17.17H714.35a17.17,17.17,0,0,1-17.17-17.17h0V140.82a17.17,17.17,0,0,1,17.17-17.17h1.91a17.17,17.17,0,0,0,17.17-17.17h0V82.6a17.16,17.16,0,0,0-17.17-17.17H70.45A17.16,17.16,0,0,0,53.28,82.6h0v23.88a17.17,17.17,0,0,0,17.17,17.17h0a17.17,17.17,0,0,1,17.17,17.17h0v23.89a17.17,17.17,0,0,1-17.17,17.17H17.17A17.17,17.17,0,0,0,0,199.05H0v23.88A17.17,17.17,0,0,0,17.17,240.1H30.1a17.18,17.18,0,0,1,17.17,17.18h0v23.88A17.17,17.17,0,0,1,30.1,298.33H30A17.18,17.18,0,0,0,12.86,315.5v23.89A17.18,17.18,0,0,0,30,356.56h3.77A17.17,17.17,0,0,1,51,373.73v23.88a17.17,17.17,0,0,1-17.17,17.17H32.33A17.18,17.18,0,0,0,15.16,432v23.88A17.17,17.17,0,0,0,32.33,473H725.48a17.17,17.17,0,0,0,17.17-17.17V432a17.17,17.17,0,0,0-17.17-17.18H710.59a17.17,17.17,0,0,1-17.17-17.17h0V373.73a17.17,17.17,0,0,1,17.17-17.17h48.24A17.17,17.17,0,0,0,776,339.39h0V315.5a17.17,17.17,0,0,0-17.17-17.17H735.05a17.17,17.17,0,0,1-17.17-17.17h0V257.28a17.18,17.18,0,0,1,17.17-17.18h.52a17.17,17.17,0,0,0,17.18-17.17Z" style="fill:#dbe8ec;opacity:0.2"/><line x1="401.21" y1="105.78" x2="441.02" y2="105.78" style="fill:none;stroke:#b9d4db;stroke-linecap:round;stroke-miterlimit:10;stroke-width:3px"/><line x1="401.21" y1="117.25" x2="441.02" y2="117.25" style="fill:none;stroke:#b9d4db;stroke-linecap:round;stroke-miterlimit:10;stroke-width:3px"/><line x1="401.21" y1="128.72" x2="441.02" y2="128.72" style="fill:none;stroke:#b9d4db;stroke-linecap:round;stroke-miterlimit:10;stroke-width:3px"/><line x1="699.51" y1="311.85" x2="739.32" y2="311.85" style="fill:none;stroke:#b9d4db;stroke-linecap:round;stroke-miterlimit:10;stroke-width:3px"/><line x1="699.51" y1="323.32" x2="739.32" y2="323.32" style="fill:none;stroke:#b9d4db;stroke-linecap:round;stroke-miterlimit:10;stroke-width:3px"/><line x1="699.51" y1="334.79" x2="739.32" y2="334.79" style="fill:none;stroke:#b9d4db;stroke-linecap:round;stroke-miterlimit:10;stroke-width:3px"/><line x1="71.76" y1="233.45" x2="111.57" y2="233.45" style="fill:none;stroke:#b9d4db;stroke-linecap:round;stroke-miterlimit:10;stroke-width:3px"/><line x1="71.76" y1="244.93" x2="111.57" y2="244.93" style="fill:none;stroke:#b9d4db;stroke-linecap:round;stroke-miterlimit:10;stroke-width:3px"/><line x1="71.76" y1="256.4" x2="111.57" y2="256.4" style="fill:none;stroke:#b9d4db;stroke-linecap:round;stroke-miterlimit:10;stroke-width:3px"/><circle cx="79.03" cy="450.14" r="20.24" style="fill:#b9d4db"/><circle cx="37.84" cy="447.24" r="10.55" style="fill:#b9d4db"/><circle cx="37" cy="410.12" r="6.08" style="fill:#b9d4db"/><circle cx="70.52" cy="404.73" r="14.58" style="fill:#b9d4db"/><circle cx="110.31" cy="91.76" r="20.24" style="fill:#b9d4db"/><circle cx="111.14" cy="50.48" r="10.55" style="fill:#b9d4db"/><circle cx="181.37" cy="56.64" r="9.13" style="fill:#b9d4db"/><circle cx="148.17" cy="47.78" r="6.08" style="fill:#b9d4db"/><circle cx="155.24" cy="80.98" r="14.58" style="fill:#b9d4db"/><circle cx="524.12" cy="145.28" r="20.24" style="fill:#b9d4db"/><circle cx="537.03" cy="101.18" r="10.55" style="fill:#b9d4db"/><circle cx="570.09" cy="128.14" r="6.08" style="fill:#b9d4db"/><circle cx="588.46" cy="155.4" r="14.58" style="fill:#b9d4db"/><circle cx="692.45" cy="451.76" r="20.24" style="fill:#b9d4db"/><circle cx="692.45" cy="415.86" r="6.08" style="fill:#b9d4db"/><circle cx="724.74" cy="428.13" r="14.58" style="fill:#b9d4db"/></g><g id="clipboard"><path d="M519.42,512.08H189a13.48,13.48,0,0,1-13.49-13.48,13.9,13.9,0,0,1,.25-2.57l91.09-469.6a13.49,13.49,0,0,1,13.24-10.92H610.51A13.49,13.49,0,0,1,624,29a12.92,12.92,0,0,1-.25,2.56L532.66,501.17A13.48,13.48,0,0,1,519.42,512.08Z" style="fill:#bac8ff"/><polygon points="568.61 26.61 488.11 426.09 288.37 426.09 568.61 26.61" style="fill:#5c7cfa"/><path d="M478.5,263.32c58.51-91,77.15-177.1,91.58-236.71H309.38A774.89,774.89,0,0,1,208.17,263.32,773.89,773.89,0,0,1,68,426.09H338.36A773.6,773.6,0,0,0,478.5,263.32Z" style="fill:#ff922b"/><path d="M489.69,44.87H387.78c-2.61,0-4.58-1.6-4.08-3.32L394.55,2.28A4.07,4.07,0,0,1,398.63,0H500.54c2.61,0,4.58,1.6,4.08,3.32L493.77,42.61A4.06,4.06,0,0,1,489.69,44.87Z" style="fill:#5c7cfa"/><line x1="332.09" y1="88.09" x2="474.27" y2="85.32" style="fill:none;stroke:#3086a3;stroke-miterlimit:10;stroke-width:3px"/><line x1="491.92" y1="85.63" x2="524.53" y2="85" style="fill:none;stroke:#5c7cfa;stroke-miterlimit:10;stroke-width:3px"/><line x1="321.02" y1="122.67" x2="463.2" y2="119.9" style="fill:none;stroke:#5c7cfa;stroke-miterlimit:10;stroke-width:3px"/><line x1="480.85" y1="120.21" x2="513.46" y2="119.58" style="fill:none;stroke:#5c7cfa;stroke-miterlimit:10;stroke-width:3px"/><line x1="303.56" y1="157.15" x2="445.73" y2="154.38" style="fill:none;stroke:#5c7cfa;stroke-miterlimit:10;stroke-width:3px"/><line x1="463.38" y1="154.7" x2="495.99" y2="154.06" style="fill:none;stroke:#5c7cfa;stroke-miterlimit:10;stroke-width:3px"/><line x1="287.4" y1="191.95" x2="429.58" y2="189.18" style="fill:none;stroke:#5c7cfa;stroke-miterlimit:10;stroke-width:3px"/><line x1="447.23" y1="189.49" x2="479.84" y2="188.86" style="fill:none;stroke:#5c7cfa;stroke-miterlimit:10;stroke-width:3px"/><line x1="267.08" y1="226.35" x2="409.26" y2="223.57" style="fill:none;stroke:#5c7cfa;stroke-miterlimit:10;stroke-width:3px"/><line x1="426.91" y1="223.89" x2="459.52" y2="223.25" style="fill:none;stroke:#5c7cfa;stroke-miterlimit:10;stroke-width:3px"/><line x1="241.95" y1="261.06" x2="384.13" y2="258.29" style="fill:none;stroke:#5c7cfa;stroke-miterlimit:10;stroke-width:3px"/><line x1="401.78" y1="258.61" x2="434.39" y2="257.97" style="fill:none;stroke:#5c7cfa;stroke-miterlimit:10;stroke-width:3px"/><line x1="216.83" y1="296.09" x2="359" y2="293.32" style="fill:none;stroke:#5c7cfa;stroke-miterlimit:10;stroke-width:3px"/><line x1="376.65" y1="293.64" x2="409.26" y2="293" style="fill:none;stroke:#5c7cfa;stroke-miterlimit:10;stroke-width:3px"/><line x1="186.29" y1="331.44" x2="328.47" y2="328.67" style="fill:none;stroke:#5c7cfa;stroke-miterlimit:10;stroke-width:3px"/><line x1="346.12" y1="328.99" x2="378.73" y2="328.35" style="fill:none;stroke:#5c7cfa;stroke-miterlimit:10;stroke-width:3px"/><line x1="161.16" y1="367.11" x2="303.34" y2="364.34" style="fill:none;stroke:#5c7cfa;stroke-miterlimit:10;stroke-width:3px"/><line x1="320.99" y1="364.66" x2="353.6" y2="364.02" style="fill:none;stroke:#5c7cfa;stroke-miterlimit:10;stroke-width:3px"/><line x1="120.61" y1="403.1" x2="262.78" y2="400.33" style="fill:none;stroke:#5c7cfa;stroke-miterlimit:10;stroke-width:3px"/><line x1="280.44" y1="400.64" x2="313.04" y2="400.01" style="fill:none;stroke:#5c7cfa;stroke-miterlimit:10;stroke-width:3px"/></g></g></g></svg>