<svg xmlns="http://www.w3.org/2000/svg" viewBox="0 0 296.08 302.36"><title>NoTransactions</title><g id="Layer_2" data-name="Layer 2"><g id="Layer_1-2" data-name="Layer 1"><path d="M31.06,0A25.39,25.39,0,0,1,55.79,31.05L.65,271.31a25.36,25.36,0,0,0,24.73,31.05h9.88L173,271.31,228.19,31.05A25.38,25.38,0,0,0,209.13.64,25.74,25.74,0,0,0,203.46,0H31.06Z" style="fill:#ffa94d"/><path d="M197.77,302.36h9.89A25.37,25.37,0,0,0,232,284l11.5-39.92a25.38,25.38,0,0,1,24.38-18.34H95.53A25.37,25.37,0,0,0,71.15,244.1L59.64,284a25.37,25.37,0,0,1-24.38,18.34Z" style="fill:#e06714"/><path d="M95.53,225.76H98.3A25.35,25.35,0,0,1,123,257.07l-4.18,17.35h172.4l4.18-17.35a25.36,25.36,0,0,0-24.67-31.31H95.53Z" style="fill:#ffa94d"/><line x1="41.42" y1="183.85" x2="162.3" y2="183.85" style="fill:none;stroke:#e06714;stroke-miterlimit:10;stroke-width:4px"/><line x1="49.72" y1="154.94" x2="170.59" y2="154.94" style="fill:none;stroke:#e06714;stroke-miterlimit:10;stroke-width:4px"/><line x1="58.2" y1="125.77" x2="179.08" y2="125.77" style="fill:none;stroke:#e06714;stroke-miterlimit:10;stroke-width:4px"/><line x1="66.69" y1="96.59" x2="187.56" y2="96.59" style="fill:none;stroke:#e06714;stroke-miterlimit:10;stroke-width:4px"/><line x1="75.17" y1="67.42" x2="196.05" y2="67.42" style="fill:none;stroke:#e06714;stroke-miterlimit:10;stroke-width:4px"/><line x1="83.65" y1="38.25" x2="204.53" y2="38.25" style="fill:none;stroke:#e06714;stroke-miterlimit:10;stroke-width:4px"/></g></g></svg>