<?xml version="1.0" encoding="utf-8"?>
<!-- Generator: Adobe Illustrator 23.0.1, SVG Export Plug-In . SVG Version: 6.00 Build 0)  -->
<svg version="1.1" id="Слой_1" xmlns="http://www.w3.org/2000/svg" xmlns:xlink="http://www.w3.org/1999/xlink" x="0px" y="0px"
	 viewBox="0 0 2000 2000" style="enable-background:new 0 0 2000 2000;" xml:space="preserve">
<style type="text/css">
	.st0{display:none;fill:#EBF3FA;}
	.st1{fill:#DFEBFD;}
	.st2{fill:#EFA26F;}
	.st3{fill:#F99746;}
	.st4{fill:#FFB27D;}
	.st5{fill:#D38254;}
	.st6{fill:#FFC197;}
	.st7{fill:#2B478B;}
	.st8{fill:#C0D8FB;}
	.st9{fill:#CBE1FD;}
	.st10{font-family:'ErasITC-Bold';}
	.st11{font-size:62.0435px;}
	.st12{fill:#FFD3B6;}
	.st13{fill:#ED7D2B;}
	.st14{fill:#F3F8FF;}
	.st15{fill:#E1EEFB;}
	.st16{fill:none;}
	.st17{font-size:32px;}
</style>
<rect class="st0" width="2000" height="2000"/>
<g>
	<path class="st1" d="M860.4,1076.7c0,0-79.7,180.4-112.4,163.5c-32.6-16.9,103.4-194.6,103.4-194.6S752,872.1,689.9,837.7
		c0,0-15.2,219.2-42.6,194.8c-27.5-24.4-22.3-253.3-22.3-253.3s-132.8-132.8-219.2-59.4c-86.4,73.4-78,145.6-59.3,166.7
		c18.7,21.1,164.6,118.7,148,134.9c-16.7,16.2-135-20.9-177.9-75.3c0,0-41.9,189.8,42.1,236.5c84.1,46.7,142.1,14.7,193.5,44.5
		s78.1,67.5,44.6,63.9c-33.5-3.6-110.1-69.3-172.6-62.9s-108.7,5.1-45.7,70.5c62.9,65.4,200.9,146.4,266,108.2
		c2.8-1.7,5.5-3.3,8.1-4.8c-4.8,3.6-8.1,4.8-8.1,4.8c8.1,17.2,2.5,68.7-3.3,107.2c-1.4,6.3-2.9,15.3-4.5,27.7c0,0,0,0,0,0
		c-1,5.5-1.8,9.9-2.4,13.1c-18.6,82.4-109,184.6-109,184.6l12.8,15c112-88.6,114.7-222.9,114.7-222.9c10.9-100.4,56.7-163,56.7-163
		s195.2,18,203-134.3C912.5,1234.3,905.1,1132.3,860.4,1076.7z"/>
	<path class="st2" d="M1432.8,997.4c0,0-95.2,190.5-192,322c-38.5,52.3-77.2,95.3-110.3,113.3c-32.4,17.5-59.7,44.8-82.4,75
		c-58.7,78.2-85.8,176.1-85.8,176.1L715,1309.6c0,0,8.4-365.8,38.1-427c43.3-89.2,64.2-269.3,80.8-305.2
		c12.3-26.6,47.6-164.1,50.9-174.2c1.5-4.4,13.2-11,28.4-11c12.2,0,33,11.8,38.2,36.1c26.5,122.6-5.4,203.5-5,207.1
		c9.3,94.3-18.7,164.2,0.9,182.8c0.7,0.7,2.1,0.4,4-0.9c34.1-21.9,245.8-330.5,271.8-337.1C1250.8,473.1,1432.8,997.4,1432.8,997.4z
		"/>
	<path class="st3" d="M1036.7,1609.7c0,0-3.4,166.3-13,390.3H399.8c142.6-304.1,266.6-560.1,266.6-560.1
		S1021.7,1450.7,1036.7,1609.7z"/>
	<path class="st4" d="M1649,352.6l-76.6,112.3l-75.2,110.2c-4.6,5.5-9.9,7.5-15.6,6.9c-18-1.7-40.4-27.7-57.7-42.1l-1.8-1.4
		c-22.9-19-26.2-53.3-7.2-76.2l114.9-138.9v0l34.1-41.2c19-22.9,53.3-26.2,76.2-7.2l1.8,1.4C1664.8,295.4,1668,329.7,1649,352.6z"/>
	<path class="st2" d="M1572.4,464.9l-75.2,110.2c-4.6,5.5-9.9,7.5-15.6,6.9l48.2-258.6C1529.9,324.8,1538.1,440.9,1572.4,464.9z"/>
	<path class="st5" d="M1240.8,1319.4c-38.5,52.3-77.2,95.3-110.3,113.3c-32.4,17.5-59.7,44.8-82.4,75
		c-26.1-12.2-55.8-26.4-84.8-40.5c-35.4-17.2-36.7-67.4-2.1-86c0.3-0.2,0.7-0.4,1-0.6c32.5-18.6,65.7-84.2,65.7-84.2L1240.8,1319.4z
		"/>
	<path class="st6" d="M883.2,408.9l-20,80.9c0,0,17.5,7.2,28.8,1.6C903.1,485.8,912.3,413.2,883.2,408.9z"/>
	<g>
		<path class="st7" d="M1459.5,1357.6h-431c-42.4,0-77.1-34.7-77.1-77.1V333.2c0-42.4,34.7-77.1,77.1-77.1h431
			c42.4,0,77.1,34.7,77.1,77.1v947.3C1536.6,1323,1501.9,1357.6,1459.5,1357.6z"/>
		<g>
			<path class="st8" d="M1507.6,340.5v925.4c0,31.4-25.5,57.1-56.7,57.1h-413.8c-31.2,0-56.6-25.7-56.6-57.1V340.5
				c0-31.4,25.5-57.1,56.6-57.1H1451C1482.1,283.5,1507.6,309.1,1507.6,340.5z"/>
			<path class="st9" d="M1451,283.5L1042.3,1323h-5.1c-31.2,0-56.6-25.7-56.6-57.1V340.5c0-31.4,25.5-57.1,56.6-57.1H1451z"/>
		</g>
		<text transform="matrix(1 0 0 1 999.3102 760.8751)"><tspan x="0" y="0" class="st7 st10 st11">Mobile Devices </tspan><tspan x="165.6" y="74.5" class="st7 st10 st11">Only</tspan></text>
		<path class="st7" d="M1330.5,317.9h-173c-14.1,0-25.6-11.5-25.6-25.6v-4c0-14.1,11.5-25.6,25.6-25.6h173
			c14.1,0,25.6,11.5,25.6,25.6v4C1356.1,306.4,1344.6,317.9,1330.5,317.9z"/>
	</g>
	<g>
		<path class="st4" d="M1610.9,776.7l-11.4,4.3l-76.8,29.2c-1.8,0.7-3.6,1.3-5.4,1.7c-25.4,6.6-52.5-6.9-62-32l-1.1-3
			c-10.2-26.9,3.4-57.3,30.3-67.5l71.6-27.2l5.2-2l11.4-4.3c26.9-10.2,57.3,3.4,67.5,30.3l1.1,2.9
			C1651.5,736.1,1637.8,766.5,1610.9,776.7z"/>
		<path class="st12" d="M1548.5,778.5c-12.8,4.9-36,13.5-48.4,15.3c-3.5,0.5-10-1.4-16-8c-3.6-4-7.1-9.6-9.7-17.4
			c-1.2-3.7-2.2-7.3-2.6-11.1c-0.5-4.4-0.4-8.8,0.4-13.2c0.7-3.9,3.4-7.5,7.3-9.4c0,0,0,0,0.1,0c13.2-6.3,31-14,46.6-18.3
			c10.8-3,21.7,1.8,25.1,11.2l1.6,4.4l8.2,22.6C1564.5,763.8,1559,774.5,1548.5,778.5z"/>
		<path class="st6" d="M1548.5,778.5c-12.8,4.9-36,13.5-48.4,15.3c-3.5,0.5-10-1.4-16-8c-0.6-1.5-1.2-3.1-1.8-4.8
			c-1.2-3.7-2.2-7.3-2.6-11.1c-0.5-4.4-0.4-8.8,0.4-13.2c0.7-3.9,3.4-7.5,7.3-9.4c0,0,0,0,0.1,0c13.2-6.3,31-14,46.6-18.3
			c6.9-1.9,13.9-0.6,18.9,3l8.2,22.6C1564.5,763.8,1559,774.5,1548.5,778.5z"/>
	</g>
	<g>
		<path class="st4" d="M1576.1,884.7l-59.2,16.1c-18,4.9-36.7-5.8-41.6-23.8l-1.8-6.7c-4.9-18,5.8-36.7,23.8-41.6l59.2-16.1
			c18-4.9,36.7,5.8,41.6,23.8l1.8,6.7C1604.8,861.1,1594.1,879.8,1576.1,884.7z"/>
		<path class="st12" d="M1544,881.8c-10.9,2.9-30.6,8-40.9,8.6c-3.7,0.2-11.3-3-16.2-12.8c-1.2-2.4-2.2-5.2-3-8.4
			c-0.7-2.9-1.3-5.8-1.3-8.7c-0.1-3.4,0.4-6.8,1.3-10.1c0.9-3,3.3-5.6,6.7-6.8c0,0,0,0,0.1,0c11.3-4,26.5-8.7,39.6-11
			c9.1-1.6,17.6,2.8,19.8,10.2l1.5,5.3l4.6,16C1558.3,871.5,1552.9,879.4,1544,881.8z"/>
		<path class="st6" d="M1544,881.8c-10.9,2.9-30.6,8-40.9,8.6c-3.7,0.2-11.3-3-16.2-12.8c-0.7-2.7-1.1-5.4-1.2-8.2
			c-0.1-3.4,0.4-6.8,1.3-10.1c0.9-3,3.3-5.6,6.7-6.8c0,0,0,0,0.1,0c11.3-4,26.5-8.7,39.6-11c7.5-1.3,14.7,1.4,18.1,6.7l4.6,16
			C1558.3,871.5,1552.9,879.4,1544,881.8z"/>
	</g>
	<path class="st13" d="M605.7,1566.1c0,0,121.9,116.8,204.1,161.9l62.2-44.1v65.1c0,0,122.4,21.6,161,0v-177.6L689.2,1399
		L605.7,1566.1z"/>
	<path class="st14" d="M715,1296.4c0,0-77.4,115.8-154.4,239.7c0,0,162.2,111.6,250.1,144.3L926,1548.3l-16.5,159
		c0,0,102.1,37.2,149.4,27.5c0,0-3-144.2-3-238.7C1056,1496,775.4,1417.4,715,1296.4z"/>
	<path class="st3" d="M734,1590.3c0.1-10.6,8.8-19.1,19.4-19c10.6,0.1,19.1,8.8,19,19.4s-8.8,19.1-19.4,19
		C742.4,1609.6,733.9,1600.9,734,1590.3z"/>
	<g>
		<path class="st4" d="M1609,663.2c-0.4,0.2-0.8,0.3-1.3,0.4l-77.7,19.9c-34.1,8.8-69.5-9.7-78.5-41.1l-4.6-16.1
			c-8.7-30.1,10-61.6,41.7-71.8l25.6-6.6l52-13.4c34.1-8.8,69.5,9.7,78.5,41.1l4.6,16.1C1658,621.5,1640,652.5,1609,663.2z"/>
		<path class="st12" d="M1573.5,641.5l-37.7,17c-0.1,0-0.1,0-0.2,0.1c-1.5,0.4-3,0.7-4.6,0.9c-0.6,0.1-1.3,0.2-1.9,0.2
			c-0.3,0-0.5,0-0.8,0c-4.2-0.1-7-4.5-5.2-8.5c3.6-7.8,4.5-16.8,2.1-25.6l-0.9-3.3c0,0,0-0.1,0-0.1l-2.9-10.7
			c-2.3-8.5-7.2-15.7-13.7-20.9c-0.8-0.6-1.6-1.2-2.4-1.8c-7.5-5.2-5.6-16.9,3.2-19.3c0.1,0,0.2,0,0.2-0.1l41.4-6.3
			c10.2-2.8,20.1,5.1,22.9,15.3l3.3,12.2l7.1,26C1586.1,627.1,1583.7,638.7,1573.5,641.5z"/>
		<path class="st6" d="M1573.5,641.5l-37.7,17c-0.1,0-0.1,0-0.2,0.1c-0.9,0.2-3.7,0.6-7.3,1.2c-4.2-0.1-7-4.5-5.2-8.5
			c3.6-7.8,4.5-16.8,2.1-25.6l-0.9-3.3c0,0,0-0.1,0-0.1l-2.9-10.7c-2.3-8.5-7.2-15.7-13.7-20.9c1.3-2,3.3-3.5,5.9-4.2
			c0.1,0,0.2,0,0.2-0.1l41.4-6.3c8.6-2.3,17,2.9,21.1,10.7l7.1,26C1586.1,627.1,1583.7,638.7,1573.5,641.5z"/>
	</g>
	<path class="st5" d="M951.5,1067.1c0,0-16.9-147.9-32.6-176.7c-15.6-28.8-28.9-86.6-4.8-129.5c24-42.9,32.4-125.5,32.4-125.5
		c9.3,94.3-18.7,164.2,0.9,182.8c0.7,0.7,2.1,0.4,4-0.9L951.5,1067.1z"/>
	<path class="st15" d="M490.7,1616.7c0,0-28.9-79-76.9-112.9c0,0-22.3,160.7-52,154.7c-29.6-6,37.8-177.3,37.8-177.3
		s-117.8-114.7-174.7-127.9c0,0,37.6,176.9,10.3,163.8c-27.3-13.1-74.9-195.3-74.9-195.3S60.9,1266.5,0,1299.8v185.4
		c46.7,18.5,118.8,45.5,111.8,57.7c-7,12.2-63.8,14-111.8,1V1673c10.9,13.9,24.3,24.3,40.9,28.1c77.1,18,115.7-20.5,163.2-8.5
		c47.4,12,77,35.8,49.7,40.4c-27.3,4.7-102.7-30-150.7-10.8c-48,19.2-84.8,28.6-20.2,66.1c64.6,37.5,192,70.4,234.8,25.4
		c0,0,0,0,0,0c1.9-2,3.7-3.8,5.4-5.6c0,0,0,0,0,0c-3,3.9-5.4,5.7-5.4,5.7c10.3,11.8,17.5,53.8,21.7,85.6c0.3,5.3,1.2,12.7,2.7,22.8
		c0.5,4.7,0.9,8.5,1.1,11.2c1.1,20.5-2.3,43.9-7.7,66.5h20.6c6.5-51-3.5-89.2-3.5-89.3l0,0c-14.1-81.9,8-141.8,8-141.8s0,0,0,0
		C360.8,1768.8,518.9,1738.9,490.7,1616.7z"/>
	<path class="st1" d="M1812.4,1475.5c-27.1-100.1-196.1-68.8-196.1-68.8s-114.7,175.2-148.1,179.4s68.8-169,68.8-169
		c-64.7-6.3-229.5,73-229.5,73s10.4,204.4-22.9,200.3c-33.4-4.2,0-181.5,0-181.5c-62.6,18.8-121,91.8-121,91.8
		c-73,118.9,83.4,206.5,83.4,206.5s2.1,70.9-41.7,152.3l0,0c0,0-9.9,15-19.9,40.6h17.1c1.4-4.6,2.9-9,4.6-13.2c0,0,0-0.1,0-0.1
		c0-0.1,0.1-0.1,0.1-0.2c1.2-2.6,2.8-6.4,4.9-11c0,0,0,0,0,0c0,0,0,0,0,0c5.2-10.2,8.7-17.7,11-23.2c0,0,0,0,0-0.1
		c15.6-32,38.1-73.8,53.1-82.5c0,0-1.9-2.7-3.7-7.8c1.2,2.5,2.4,5.1,3.7,7.8c29.2,62.6,175.2,73,256.6,56.3
		c81.4-16.7,45.9-39.6,2.1-76.9c-43.8-37.2-135.6-27.4-162.7-42c-27.1-14.6,12.5-29.2,66.8-25c54.2,4.2,81.4,58.4,169,66.8
		c87.6,8.3,154.4-156.5,154.4-156.5c-60.5,18.8-169-14.6-173.1-35.5c-4.2-20.9,156.5-18.8,181.5-25
		C1795.8,1625.7,1839.6,1575.6,1812.4,1475.5z"/>
</g>
<rect x="1005.8" y="886.3" class="st16" width="478.3" height="178.3"/>
<text transform="matrix(1 0 0 1 1022.499 907.6914)"><tspan x="0" y="0" class="st13 st10 st17">This application only works </tspan><tspan x="66.9" y="38.4" class="st13 st10 st17">on mobile devices!!</tspan></text>
</svg>
