<svg xmlns="http://www.w3.org/2000/svg" viewBox="0 0 776 481.24"><title>Unauthorized</title><g id="Layer_2" data-name="Layer 2"><g id="Layer_1-2" data-name="Layer 1"><g id="backdrop"><path d="M752.75,185.37V161.49a17.17,17.17,0,0,0-17.18-17.17H714.35a17.18,17.18,0,0,1-17.17-17.18h0V103.26a17.17,17.17,0,0,1,17.17-17.17h1.91a17.17,17.17,0,0,0,17.17-17.17h0V45a17.17,17.17,0,0,0-17.17-17.17H70.45A17.17,17.17,0,0,0,53.28,45h0V68.92A17.17,17.17,0,0,0,70.45,86.09h0a17.17,17.17,0,0,1,17.17,17.17h0v23.88a17.18,17.18,0,0,1-17.17,17.18H17.17A17.17,17.17,0,0,0,0,161.49H0v23.88a17.17,17.17,0,0,0,17.17,17.17H30.1a17.17,17.17,0,0,1,17.17,17.17h0V243.6A17.17,17.17,0,0,1,30.1,260.77H30a17.18,17.18,0,0,0-17.18,17.17v23.88A17.17,17.17,0,0,0,30,319h3.77A17.18,17.18,0,0,1,51,336.17v23.88a17.17,17.17,0,0,1-17.17,17.17H32.33a17.17,17.17,0,0,0-17.17,17.17v23.89a17.17,17.17,0,0,0,17.17,17.17H725.48a17.17,17.17,0,0,0,17.17-17.17V394.39a17.17,17.17,0,0,0-17.17-17.17H710.59a17.17,17.17,0,0,1-17.17-17.17h0V336.17A17.18,17.18,0,0,1,710.59,319h48.24A17.17,17.17,0,0,0,776,301.82h0V277.94a17.17,17.17,0,0,0-17.17-17.17H735.05a17.17,17.17,0,0,1-17.17-17.17h0V219.71a17.17,17.17,0,0,1,17.17-17.17h.52a17.18,17.18,0,0,0,17.18-17.17Z" style="fill:#dbe8ec;opacity:0.2"/><line x1="401.21" y1="68.21" x2="441.02" y2="68.21" style="fill:none;stroke:#b9d4db;stroke-linecap:round;stroke-miterlimit:10;stroke-width:3px"/><line x1="401.21" y1="79.69" x2="441.02" y2="79.69" style="fill:none;stroke:#b9d4db;stroke-linecap:round;stroke-miterlimit:10;stroke-width:3px"/><line x1="401.21" y1="91.16" x2="441.02" y2="91.16" style="fill:none;stroke:#b9d4db;stroke-linecap:round;stroke-miterlimit:10;stroke-width:3px"/><line x1="699.51" y1="274.28" x2="739.32" y2="274.28" style="fill:none;stroke:#b9d4db;stroke-linecap:round;stroke-miterlimit:10;stroke-width:3px"/><line x1="699.51" y1="285.76" x2="739.32" y2="285.76" style="fill:none;stroke:#b9d4db;stroke-linecap:round;stroke-miterlimit:10;stroke-width:3px"/><line x1="699.51" y1="297.23" x2="739.32" y2="297.23" style="fill:none;stroke:#b9d4db;stroke-linecap:round;stroke-miterlimit:10;stroke-width:3px"/><line x1="71.76" y1="195.89" x2="111.57" y2="195.89" style="fill:none;stroke:#b9d4db;stroke-linecap:round;stroke-miterlimit:10;stroke-width:3px"/><line x1="71.76" y1="207.37" x2="111.57" y2="207.37" style="fill:none;stroke:#b9d4db;stroke-linecap:round;stroke-miterlimit:10;stroke-width:3px"/><line x1="71.76" y1="218.84" x2="111.57" y2="218.84" style="fill:none;stroke:#b9d4db;stroke-linecap:round;stroke-miterlimit:10;stroke-width:3px"/><circle cx="79.03" cy="412.57" r="20.24" style="fill:#b9d4db"/><circle cx="37.84" cy="409.68" r="10.55" style="fill:#b9d4db"/><circle cx="37" cy="372.55" r="6.08" style="fill:#b9d4db"/><circle cx="70.52" cy="367.17" r="14.58" style="fill:#b9d4db"/><circle cx="110.31" cy="54.2" r="20.24" style="fill:#b9d4db"/><circle cx="111.14" cy="12.92" r="10.55" style="fill:#b9d4db"/><circle cx="181.37" cy="19.08" r="9.13" style="fill:#b9d4db"/><circle cx="148.17" cy="10.21" r="6.08" style="fill:#b9d4db"/><circle cx="155.24" cy="43.42" r="14.58" style="fill:#b9d4db"/><circle cx="524.12" cy="107.72" r="20.24" style="fill:#b9d4db"/><circle cx="537.03" cy="63.62" r="10.55" style="fill:#b9d4db"/><circle cx="570.09" cy="90.58" r="6.08" style="fill:#b9d4db"/><circle cx="588.46" cy="117.84" r="14.58" style="fill:#b9d4db"/><circle cx="692.45" cy="414.2" r="20.24" style="fill:#b9d4db"/><circle cx="692.45" cy="378.29" r="6.08" style="fill:#b9d4db"/><circle cx="724.74" cy="390.57" r="14.58" style="fill:#b9d4db"/></g><path d="M528.75,99.08c-66.26-1.12-132.32-20-192.24-55.32C276.64,79.06,210.58,98,144.3,99.08c-13.51,144.19,30.13,317.7,192.21,382.16,162.12-64.46,205.6-238,192.24-382.16Z" style="fill:#bac8ff"/><path d="M483.61,137.46c-50.71-.86-101.25-15.33-147.1-42.34-45.81,27-96.36,41.48-147.07,42.34C179.1,247.79,212.49,380.55,336.51,429.87,460.56,380.55,493.83,247.79,483.61,137.46Z" style="fill:#5c7cfa"/><circle cx="548.88" cy="95.12" r="95.12" transform="translate(93.5 415.98) rotate(-45)" style="fill:#ffa94d"/><path d="M551.63,132.38h-50a5.5,5.5,0,0,1-4.76-8.25l25-43.32,25-43.32a5.5,5.5,0,0,1,9.52,0l25,43.32,25,43.32a5.5,5.5,0,0,1-2,7.51,5.56,5.56,0,0,1-2.75.74Z" style="fill:#e8590c"/><path d="M551.63,58h0a2.76,2.76,0,0,1,2.75,2.76v41a2.75,2.75,0,0,1-2.75,2.75h0a2.75,2.75,0,0,1-2.75-2.75v-41A2.76,2.76,0,0,1,551.63,58Z" style="fill:#b9d4db"/><circle cx="551.63" cy="117.67" r="6.58" transform="translate(380.18 655.02) rotate(-84.35)" style="fill:#b9d4db"/><path d="M312,240.12V206.71a25.36,25.36,0,0,1,25.37-25.36h3A25.35,25.35,0,0,1,366,206.46V218a2.88,2.88,0,0,0,2.85,2.86l13.48.06a2.87,2.87,0,0,0,2.88-2.86h0v-9.46a44.13,44.13,0,0,0-44.11-44.13h-4.11a44.13,44.13,0,0,0-44.17,44.09V241Z" style="fill:#e8590c"/><path d="M391.53,336.2a12.76,12.76,0,0,0,12.74-12.73V251.05a12.77,12.77,0,0,0-12.74-12.73H286.39a12.76,12.76,0,0,0-12.73,12.73v72.42a12.76,12.76,0,0,0,12.73,12.73Z" style="fill:#ffa94d"/><path d="M339,263.16a13.68,13.68,0,0,0-13.64,13.64,13.45,13.45,0,0,0,5.55,10.47v16a8.1,8.1,0,1,0,16.19,0v-16a13.48,13.48,0,0,0,5.54-10.47A13.68,13.68,0,0,0,339,263.16Z" style="fill:#e8590c"/></g></g></svg>