<?xml version="1.0" encoding="utf-8"?>
<!-- Generator: Adobe Illustrator 23.0.1, SVG Export Plug-In . SVG Version: 6.00 Build 0)  -->
<svg version="1.1" id="Layer_1" xmlns="http://www.w3.org/2000/svg" xmlns:xlink="http://www.w3.org/1999/xlink" x="0px" y="0px"
	 viewBox="0 0 1080 1080" style="enable-background:new 0 0 1080 1080;" xml:space="preserve">
<style type="text/css">
	.st0{fill:#F8F9FA;}
	.st1{fill:#DEE2E6;}
	.st2{fill:#5C7CFA;}
	.st3{display:none;fill:#5C7CFA;}
</style>
<g>
	<path class="st0" d="M887.8,1025.6H192.2c-76.1,0-137.8-61.7-137.8-137.8V192.2c0-76.1,61.7-137.8,137.8-137.8h695.7
		c76.1,0,137.8,61.7,137.8,137.8v695.7C1025.6,963.9,963.9,1025.6,887.8,1025.6z"/>
	<path class="st1" d="M887.8,1025.7l-456.1,0.5l-228,0.2l-7.1,0c-2.4,0-4.7,0-7.1-0.1c-2.4-0.1-4.8-0.1-7.2-0.3l-3.6-0.3
		c-1.2-0.1-2.4-0.3-3.6-0.4c-9.5-1.2-18.9-3.3-27.9-6.4c-18.1-6.2-34.9-16.2-48.9-29.1c-14.1-13-25.4-28.8-33.1-46.3
		c-7.7-17.5-11.7-36.6-11.7-55.7L54,431.8l0-228l0-7.1c0-2.4,0-4.7,0.1-7.1c0.1-2.4,0.1-4.8,0.3-7.1l0.3-3.6
		c0.1-1.2,0.3-2.4,0.4-3.5c1.1-9.5,3.3-18.8,6.4-27.8c6.2-18,16.1-34.8,29-48.8c12.9-14,28.7-25.4,46.2-33.1
		c17.4-7.7,36.5-11.7,55.6-11.7l456.1-0.4l228-0.1l7.1,0c2.4,0,4.7,0,7.1,0.1c2.4,0.1,4.8,0.1,7.2,0.3l3.6,0.3
		c1.2,0.1,2.4,0.3,3.6,0.4c9.5,1.2,18.9,3.3,27.9,6.4c18.1,6.2,34.9,16.2,49,29.2c14.1,13,25.5,28.9,33.2,46.4
		c7.7,17.5,11.7,36.7,11.7,55.8c0,152-0.1,304-0.4,456.1l-0.4,228l0,7.1c0,2.4,0,4.7-0.1,7.1c-0.1,2.4-0.1,4.8-0.3,7.1l-0.3,3.6
		c-0.1,1.2-0.3,2.4-0.4,3.5c-1.2,9.4-3.3,18.8-6.4,27.8c-6.2,18-16.1,34.7-29,48.7c-12.9,14-28.7,25.3-46.1,32.9
		C925.9,1021.8,906.8,1025.8,887.8,1025.7z M887.8,1025.5c19,0,38-4,55.3-11.6c17.4-7.7,33.1-19,46-32.9
		c12.9-13.9,22.7-30.6,28.9-48.6c3.1-9,5.2-18.3,6.3-27.7c0.1-1.2,0.3-2.3,0.4-3.5l0.3-3.5c0.2-2.4,0.3-4.7,0.3-7.1
		c0.1-2.4,0.1-4.7,0.1-7.1l0-7.1l-0.4-228c-0.3-152-0.4-304-0.4-456.1c0-18.9-3.9-37.7-11.5-55c-7.6-17.3-18.8-32.9-32.7-45.7
		c-13.9-12.8-30.4-22.6-48.3-28.7c-8.9-3-18.2-5.2-27.5-6.3c-1.2-0.1-2.3-0.3-3.5-0.4l-3.5-0.3c-2.3-0.2-4.7-0.3-7.1-0.3
		c-2.3-0.1-4.7-0.1-7.1-0.1l-7.1,0l-228-0.1l-456.1-0.4c-18.9,0-37.9,3.9-55.2,11.5c-17.3,7.6-33.1,18.9-45.9,32.8
		c-12.9,13.9-22.7,30.5-28.9,48.5c-3.1,9-5.2,18.2-6.4,27.6c-0.1,1.2-0.3,2.3-0.4,3.5l-0.3,3.5c-0.2,2.4-0.3,4.7-0.3,7.1
		c-0.1,2.4-0.1,4.7-0.1,7.1l0,7.1l0,228l0.5,456.1c0,18.9,3.9,37.8,11.6,55c7.6,17.3,18.8,32.9,32.7,45.7
		c13.9,12.8,30.5,22.6,48.3,28.7c8.9,3,18.2,5.2,27.5,6.3c1.2,0.1,2.3,0.3,3.5,0.4l3.5,0.3c2.4,0.2,4.7,0.3,7.1,0.3
		c2.4,0.1,4.7,0.1,7.1,0.1l7.1,0l228,0.2L887.8,1025.5z"/>
</g>
<g>
	<g>
		<polygon class="st2" points="664.4,623.2 663.4,622.1 582.3,541 581.2,540 500.1,458.8 583.3,375.6 664.4,456.8 665.5,457.8 
			747.6,540 830.8,456.8 914,373.6 830.8,290.4 747.6,373.6 666.5,292.4 665.5,291.4 583.3,209.3 500.1,292.4 416.9,375.6 
			333.7,458.8 415.9,541 416.9,542 498,623.2 499.1,624.2 580.2,705.3 497,788.5 580.2,871.7 663.4,788.5 746.6,705.3 		"/>
		<polygon class="st2" points="332.7,624.2 249.5,707.4 166.3,790.6 249.5,873.8 332.7,790.6 415.9,707.4 		"/>
		
			<rect x="688.6" y="67.9" transform="matrix(0.7071 -0.7071 0.7071 0.7071 129.3038 565.6792)" class="st3" width="117.7" height="117.7"/>
	</g>
</g>
</svg>
