<?xml version="1.0" encoding="utf-8"?>
<!-- Generator: Adobe Illustrator 23.0.1, SVG Export Plug-In . SVG Version: 6.00 Build 0)  -->
<svg version="1.1" xmlns="http://www.w3.org/2000/svg" xmlns:xlink="http://www.w3.org/1999/xlink" x="0px" y="0px"
	 viewBox="0 0 1080 1080" style="enable-background:new 0 0 1080 1080;" xml:space="preserve">
<g id="Layer_1">
</g>
<g id="Layer_2">
	<g>
		<polygon style="fill:#FFFFFF;" points="664.4,623.2 663.4,622.1 582.3,541 581.2,540 500.1,458.8 583.3,375.6 664.4,456.8 
			665.5,457.8 747.6,540 830.8,456.8 914,373.6 830.8,290.4 747.6,373.6 666.5,292.4 665.5,291.4 583.3,209.3 500.1,292.4 
			416.9,375.6 333.7,458.8 415.9,541 416.9,542 498,623.2 499.1,624.2 580.2,705.3 497,788.5 580.2,871.7 663.4,788.5 746.6,705.3 
					"/>
		<polygon style="fill:#FFFFFF;" points="332.7,624.2 249.5,707.4 166.3,790.6 249.5,873.8 332.7,790.6 415.9,707.4 		"/>
		
			<rect x="688.7" y="67.9" transform="matrix(0.7071 0.7071 -0.7071 0.7071 308.5194 -491.4614)" style="display:none;fill:#FFFFFF;" width="117.7" height="117.7"/>
	</g>
</g>
</svg>
